<?xml version="1.0" encoding="utf-8"?>
<!-- Generator: Adobe Illustrator 24.0.0, SVG Export Plug-In . SVG Version: 6.00 Build 0)  -->
<svg version="1.1" id="Capa_1" xmlns="http://www.w3.org/2000/svg" xmlns:xlink="http://www.w3.org/1999/xlink" x="0px" y="0px"
	 viewBox="0 0 512 512" style="enable-background:new 0 0 512 512;" xml:space="preserve">
<style type="text/css">
	.st0{fill:#FFFFFF;}
	.st1{fill:#FF4A4A;}
	.st2{fill:#E7343F;}
</style>
<circle class="st0" cx="259.2" cy="198.8" r="92.2"/>
<path class="st1" d="M256,0C147.1,0,58.4,88.6,58.4,197.6c0,37.6,10.3,77.6,30.5,118.7c16,32.6,38.3,66.1,66.3,99.5
	c47.5,56.7,94.2,93.1,96.2,94.6c1.4,1,3,1.6,4.6,1.6s3.2-0.5,4.6-1.6c2-1.5,48.7-37.9,96.2-94.6c28-33.4,50.3-66.9,66.3-99.5
	c20.2-41.1,30.5-81.1,30.5-118.7C453.6,88.6,364.9,0,256,0z M256,129.3c37.7,0,68.3,30.6,68.3,68.3c0,37.7-30.6,68.3-68.3,68.3
	s-68.3-30.6-68.3-68.3S218.3,129.3,256,129.3z"/>
<path class="st2" d="M256,0c-7.4,0-14.7,0.4-21.9,1.2C332.7,12.2,409.7,96,409.7,197.6c0,37.6-10.2,77.6-30.5,118.7
	c-16,32.6-38.3,66.1-66.3,99.5c-30.5,36.4-60.6,64.4-78.9,80.2c10.2,8.8,16.6,13.9,17.3,14.4c1.4,1,3,1.6,4.6,1.6s3.2-0.5,4.6-1.6
	c2-1.5,48.7-37.9,96.2-94.6c28-33.4,50.3-66.9,66.3-99.5c20.2-41.1,30.5-81.1,30.5-118.7C453.6,88.6,364.9,0,256,0z"/>
</svg>
